<mxfile host="Electron" modified="2024-03-25T21:59:31.498Z" agent="Mozilla/5.0 (Windows NT 10.0; Win64; x64) AppleWebKit/537.36 (KHTML, like Gecko) draw.io/24.1.0 Chrome/120.0.6099.109 Electron/28.1.0 Safari/537.36" etag="eltRWHmVEUZsGDgobnhF" version="24.1.0" type="device">
  <diagram id="bsTosLUH5mfE9uCYUgKQ" name="Page-1">
    <mxGraphModel dx="1050" dy="629" grid="1" gridSize="10" guides="1" tooltips="1" connect="1" arrows="1" fold="1" page="1" pageScale="1" pageWidth="1920" pageHeight="1200" math="0" shadow="0">
      <root>
        <mxCell id="0" />
        <mxCell id="1" parent="0" />
        <mxCell id="t8oGIxHCCfBVZsMOv7Ev-1" value="" style="rounded=0;whiteSpace=wrap;html=1;fontSize=22;fillColor=#f5f5f5;fontColor=#333333;strokeColor=#666666;direction=east;strokeWidth=2;fontStyle=1" parent="1" vertex="1">
          <mxGeometry x="220" y="330" width="1830" height="1410" as="geometry" />
        </mxCell>
        <mxCell id="gReoyINGvB5XyIuWN1SI-45" value="" style="rounded=0;whiteSpace=wrap;html=1;strokeWidth=2;fontStyle=1;" parent="1" vertex="1">
          <mxGeometry x="241.84536082474227" y="705" width="1788.1546391752577" height="250" as="geometry" />
        </mxCell>
        <mxCell id="t8oGIxHCCfBVZsMOv7Ev-2" value="" style="rounded=0;whiteSpace=wrap;html=1;strokeWidth=2;fontStyle=1;fontSize=11;" parent="1" vertex="1">
          <mxGeometry x="242.70629228318003" y="1258" width="1787.2937077168199" height="454.19" as="geometry" />
        </mxCell>
        <mxCell id="t8oGIxHCCfBVZsMOv7Ev-3" value="" style="rounded=0;whiteSpace=wrap;html=1;strokeWidth=2;fontStyle=1;" parent="1" vertex="1">
          <mxGeometry x="242.70629228318003" y="950.5" width="1787.2937077168199" height="307.5" as="geometry" />
        </mxCell>
        <mxCell id="t8oGIxHCCfBVZsMOv7Ev-5" value="" style="rounded=0;whiteSpace=wrap;html=1;strokeWidth=2;fontStyle=1;" parent="1" vertex="1">
          <mxGeometry x="241.85" y="380" width="1788.15" height="310" as="geometry" />
        </mxCell>
        <mxCell id="t8oGIxHCCfBVZsMOv7Ev-7" value="CLAIMANT / SUBSCRIBER" style="text;html=1;align=center;verticalAlign=middle;resizable=0;points=[];autosize=1;strokeColor=none;fillColor=none;fontStyle=1;fontSize=23;strokeWidth=2;horizontal=0;" parent="1" vertex="1">
          <mxGeometry x="241.23" y="390" width="50" height="300" as="geometry" />
        </mxCell>
        <mxCell id="t8oGIxHCCfBVZsMOv7Ev-11" value="B" style="ellipse;whiteSpace=wrap;html=1;aspect=fixed;strokeWidth=2;fontStyle=1;fontSize=22;direction=south;" parent="1" vertex="1">
          <mxGeometry x="240" y="340" width="30.75" height="30.75" as="geometry" />
        </mxCell>
        <mxCell id="t8oGIxHCCfBVZsMOv7Ev-12" value="&lt;font style=&quot;font-size: 14px;&quot;&gt;LEGEND&lt;/font&gt;" style="swimlane;whiteSpace=wrap;html=1;" parent="1" vertex="1">
          <mxGeometry x="2050" y="380" width="200" height="230" as="geometry" />
        </mxCell>
        <mxCell id="t8oGIxHCCfBVZsMOv7Ev-13" value="KM" style="ellipse;whiteSpace=wrap;html=1;fillColor=#dae8fc;strokeColor=#6c8ebf;gradientColor=#7ea6e0;fontStyle=1" parent="t8oGIxHCCfBVZsMOv7Ev-12" vertex="1">
          <mxGeometry x="10" y="30" width="30" height="26" as="geometry" />
        </mxCell>
        <mxCell id="t8oGIxHCCfBVZsMOv7Ev-14" value="IDA" style="ellipse;whiteSpace=wrap;html=1;fillColor=#dae8fc;strokeColor=#6c8ebf;gradientColor=#7ea6e0;fontStyle=1" parent="t8oGIxHCCfBVZsMOv7Ev-12" vertex="1">
          <mxGeometry x="10" y="131" width="30" height="26" as="geometry" />
        </mxCell>
        <mxCell id="t8oGIxHCCfBVZsMOv7Ev-15" value="HSM" style="ellipse;whiteSpace=wrap;html=1;fillColor=#dae8fc;strokeColor=#6c8ebf;gradientColor=#7ea6e0;fontStyle=1" parent="t8oGIxHCCfBVZsMOv7Ev-12" vertex="1">
          <mxGeometry x="10" y="91" width="30" height="26" as="geometry" />
        </mxCell>
        <mxCell id="t8oGIxHCCfBVZsMOv7Ev-16" value="KR" style="ellipse;whiteSpace=wrap;html=1;fillColor=#dae8fc;strokeColor=#6c8ebf;gradientColor=#7ea6e0;fontStyle=1" parent="t8oGIxHCCfBVZsMOv7Ev-12" vertex="1">
          <mxGeometry x="10" y="59" width="30" height="26" as="geometry" />
        </mxCell>
        <mxCell id="t8oGIxHCCfBVZsMOv7Ev-17" value="Key Manager" style="text;html=1;strokeColor=none;fillColor=none;align=center;verticalAlign=middle;whiteSpace=wrap;rounded=0;fontSize=14;" parent="t8oGIxHCCfBVZsMOv7Ev-12" vertex="1">
          <mxGeometry x="40" y="30" width="160" height="28" as="geometry" />
        </mxCell>
        <mxCell id="t8oGIxHCCfBVZsMOv7Ev-18" value="Key Revocation" style="text;html=1;strokeColor=none;fillColor=none;align=center;verticalAlign=middle;whiteSpace=wrap;rounded=0;fontSize=14;" parent="t8oGIxHCCfBVZsMOv7Ev-12" vertex="1">
          <mxGeometry x="40" y="58" width="160" height="28" as="geometry" />
        </mxCell>
        <mxCell id="t8oGIxHCCfBVZsMOv7Ev-19" value="Hardware Security Module" style="text;html=1;strokeColor=none;fillColor=none;align=center;verticalAlign=middle;whiteSpace=wrap;rounded=0;fontSize=14;" parent="t8oGIxHCCfBVZsMOv7Ev-12" vertex="1">
          <mxGeometry x="40" y="90" width="160" height="28" as="geometry" />
        </mxCell>
        <mxCell id="t8oGIxHCCfBVZsMOv7Ev-20" value="ID Authentication (DB)" style="text;html=1;strokeColor=none;fillColor=none;align=center;verticalAlign=middle;whiteSpace=wrap;rounded=0;fontSize=14;" parent="t8oGIxHCCfBVZsMOv7Ev-12" vertex="1">
          <mxGeometry x="40" y="130" width="160" height="28" as="geometry" />
        </mxCell>
        <mxCell id="t8oGIxHCCfBVZsMOv7Ev-21" value="AC" style="ellipse;whiteSpace=wrap;html=1;fillColor=#dae8fc;strokeColor=#6c8ebf;gradientColor=#7ea6e0;fontStyle=1" parent="t8oGIxHCCfBVZsMOv7Ev-12" vertex="1">
          <mxGeometry x="10" y="161" width="30" height="26" as="geometry" />
        </mxCell>
        <mxCell id="t8oGIxHCCfBVZsMOv7Ev-22" value="Access Control" style="text;html=1;strokeColor=none;fillColor=none;align=center;verticalAlign=middle;whiteSpace=wrap;rounded=0;fontSize=14;" parent="t8oGIxHCCfBVZsMOv7Ev-12" vertex="1">
          <mxGeometry x="40" y="160" width="160" height="28" as="geometry" />
        </mxCell>
        <mxCell id="t8oGIxHCCfBVZsMOv7Ev-23" value="Certificate Authority" style="text;html=1;strokeColor=none;fillColor=none;align=center;verticalAlign=middle;whiteSpace=wrap;rounded=0;fontSize=14;" parent="t8oGIxHCCfBVZsMOv7Ev-12" vertex="1">
          <mxGeometry x="40" y="190" width="160" height="28" as="geometry" />
        </mxCell>
        <mxCell id="t8oGIxHCCfBVZsMOv7Ev-24" value="CA" style="ellipse;whiteSpace=wrap;html=1;fillColor=#dae8fc;strokeColor=#6c8ebf;gradientColor=#7ea6e0;fontStyle=1" parent="t8oGIxHCCfBVZsMOv7Ev-12" vertex="1">
          <mxGeometry x="10" y="191" width="30" height="26" as="geometry" />
        </mxCell>
        <mxCell id="t8oGIxHCCfBVZsMOv7Ev-25" value="PRIVATE NETWORK&lt;br style=&quot;border-color: var(--border-color);&quot;&gt;SYSTEMS (SERVER)" style="text;html=1;align=center;verticalAlign=middle;resizable=0;points=[];autosize=1;strokeColor=none;fillColor=none;fontStyle=1;fontSize=23;strokeWidth=2;horizontal=0;" parent="1" vertex="1">
          <mxGeometry x="253" y="1367.19" width="80" height="240" as="geometry" />
        </mxCell>
        <mxCell id="t8oGIxHCCfBVZsMOv7Ev-26" value="PUBLIC NETWORK&lt;br style=&quot;border-color: var(--border-color);&quot;&gt;SYSTEMS (CLIENT)" style="text;html=1;align=center;verticalAlign=middle;resizable=0;points=[];autosize=1;strokeColor=none;fillColor=none;fontStyle=1;fontSize=23;strokeWidth=2;horizontal=0;" parent="1" vertex="1">
          <mxGeometry x="253" y="1002.19" width="80" height="230" as="geometry" />
        </mxCell>
        <mxCell id="t8oGIxHCCfBVZsMOv7Ev-33" value="&lt;font style=&quot;font-size: 14px;&quot;&gt;PUBLIC NETWORK&lt;/font&gt;" style="swimlane;whiteSpace=wrap;html=1;" parent="1" vertex="1">
          <mxGeometry x="2050" y="1002.19" width="200" height="167" as="geometry" />
        </mxCell>
        <mxCell id="t8oGIxHCCfBVZsMOv7Ev-34" value="DNS SERVERS" style="text;html=1;strokeColor=none;fillColor=none;align=center;verticalAlign=middle;whiteSpace=wrap;rounded=0;fontSize=14;" parent="t8oGIxHCCfBVZsMOv7Ev-33" vertex="1">
          <mxGeometry y="27" width="200" height="28" as="geometry" />
        </mxCell>
        <mxCell id="t8oGIxHCCfBVZsMOv7Ev-35" value="FTP SERVERS" style="text;html=1;strokeColor=none;fillColor=none;align=center;verticalAlign=middle;whiteSpace=wrap;rounded=0;fontSize=14;" parent="t8oGIxHCCfBVZsMOv7Ev-33" vertex="1">
          <mxGeometry y="55" width="200" height="28" as="geometry" />
        </mxCell>
        <mxCell id="t8oGIxHCCfBVZsMOv7Ev-36" value="MAIL SERVERS" style="text;html=1;strokeColor=none;fillColor=none;align=center;verticalAlign=middle;whiteSpace=wrap;rounded=0;fontSize=14;" parent="t8oGIxHCCfBVZsMOv7Ev-33" vertex="1">
          <mxGeometry y="83" width="200" height="28" as="geometry" />
        </mxCell>
        <mxCell id="t8oGIxHCCfBVZsMOv7Ev-37" value="PROXY SERVERS" style="text;html=1;strokeColor=none;fillColor=none;align=center;verticalAlign=middle;whiteSpace=wrap;rounded=0;fontSize=14;" parent="t8oGIxHCCfBVZsMOv7Ev-33" vertex="1">
          <mxGeometry y="111" width="200" height="28" as="geometry" />
        </mxCell>
        <mxCell id="t8oGIxHCCfBVZsMOv7Ev-38" value="WEB SERVERS" style="text;html=1;strokeColor=none;fillColor=none;align=center;verticalAlign=middle;whiteSpace=wrap;rounded=0;fontSize=14;" parent="t8oGIxHCCfBVZsMOv7Ev-33" vertex="1">
          <mxGeometry y="139" width="200" height="28" as="geometry" />
        </mxCell>
        <mxCell id="t8oGIxHCCfBVZsMOv7Ev-41" value="EXPIRY AND RENEWAL OF AUTHENTICATORS (OTP, TOKEN VALIDITY)" style="text;html=1;align=center;verticalAlign=middle;resizable=0;points=[];autosize=1;strokeColor=none;fillColor=none;fontStyle=1;strokeWidth=2;fontSize=29;" parent="1" vertex="1">
          <mxGeometry x="1020" y="330" width="1010" height="50" as="geometry" />
        </mxCell>
        <mxCell id="buAgDzbR7j7-b7g-iSKb-22" value="USER" style="shape=umlActor;verticalLabelPosition=bottom;verticalAlign=top;html=1;outlineConnect=0;fontStyle=1" parent="1" vertex="1">
          <mxGeometry x="340" y="500" width="30" height="60" as="geometry" />
        </mxCell>
        <mxCell id="Joddp9kIxZkXrCVyOgkU-38" style="edgeStyle=orthogonalEdgeStyle;rounded=0;orthogonalLoop=1;jettySize=auto;html=1;exitX=0.5;exitY=1;exitDx=0;exitDy=0;entryX=0.5;entryY=0;entryDx=0;entryDy=0;strokeColor=#00CC00;fontStyle=1;strokeWidth=2;" parent="1" edge="1">
          <mxGeometry relative="1" as="geometry">
            <mxPoint x="1176.25" y="459.0500000000002" as="sourcePoint" />
          </mxGeometry>
        </mxCell>
        <mxCell id="Joddp9kIxZkXrCVyOgkU-50" value="" style="edgeStyle=orthogonalEdgeStyle;rounded=0;orthogonalLoop=1;jettySize=auto;html=1;strokeColor=#00CC00;fontStyle=1;strokeWidth=2;" parent="1" source="Joddp9kIxZkXrCVyOgkU-51" target="Joddp9kIxZkXrCVyOgkU-52" edge="1">
          <mxGeometry relative="1" as="geometry" />
        </mxCell>
        <mxCell id="Joddp9kIxZkXrCVyOgkU-51" value="LOGS THE PROCESS AND STATUS" style="rounded=0;whiteSpace=wrap;html=1;fontStyle=1;strokeWidth=2;shape=label;boundedLbl=1;backgroundOutline=1;size=15;" parent="1" vertex="1">
          <mxGeometry x="1870" y="1390" width="120" height="73.19" as="geometry" />
        </mxCell>
        <mxCell id="Joddp9kIxZkXrCVyOgkU-52" value="&lt;b&gt;END&lt;/b&gt;" style="strokeWidth=2;html=1;shape=mxgraph.flowchart.terminator;whiteSpace=wrap;fillColor=#f8cecc;strokeColor=#b85450;" parent="1" vertex="1">
          <mxGeometry x="1880" y="1492.19" width="100" height="40" as="geometry" />
        </mxCell>
        <mxCell id="Joddp9kIxZkXrCVyOgkU-53" value="IDA" style="ellipse;whiteSpace=wrap;html=1;fillColor=#dae8fc;strokeColor=#6c8ebf;gradientColor=#7ea6e0;fontStyle=1" parent="1" vertex="1">
          <mxGeometry x="1870" y="1364" width="30" height="26" as="geometry" />
        </mxCell>
        <mxCell id="Joddp9kIxZkXrCVyOgkU-79" value="VERIFIER/&lt;br&gt;ADMINISTRATOR" style="text;html=1;align=center;verticalAlign=middle;resizable=0;points=[];autosize=1;strokeColor=none;fillColor=none;fontStyle=1;fontSize=23;strokeWidth=2;horizontal=0;" parent="1" vertex="1">
          <mxGeometry x="240" y="740" width="80" height="200" as="geometry" />
        </mxCell>
        <mxCell id="Joddp9kIxZkXrCVyOgkU-118" value="V/A" style="shape=umlActor;verticalLabelPosition=bottom;verticalAlign=top;html=1;outlineConnect=0;fontStyle=1" parent="1" vertex="1">
          <mxGeometry x="350" y="795" width="30" height="60" as="geometry" />
        </mxCell>
        <mxCell id="VvgAosoIfMzqGJNysZm7-115" style="edgeStyle=orthogonalEdgeStyle;rounded=0;orthogonalLoop=1;jettySize=auto;html=1;exitX=0.5;exitY=0;exitDx=0;exitDy=0;entryX=0.5;entryY=0;entryDx=0;entryDy=0;entryPerimeter=0;strokeColor=#FF2617;strokeWidth=2;fontStyle=1;" parent="1" edge="1">
          <mxGeometry relative="1" as="geometry">
            <mxPoint x="770" y="299.47" as="sourcePoint" />
          </mxGeometry>
        </mxCell>
        <mxCell id="VvgAosoIfMzqGJNysZm7-10" value="STORE AUTHENTICATOR EXPIRY DATE, TIME&lt;br&gt;AND RETRY COUNTER" style="shape=label;whiteSpace=wrap;html=1;boundedLbl=1;backgroundOutline=1;size=15;fontSize=11;rounded=0;fontStyle=1;strokeWidth=2;" parent="1" vertex="1">
          <mxGeometry x="1060" y="1550" width="140" height="90" as="geometry" />
        </mxCell>
        <mxCell id="VvgAosoIfMzqGJNysZm7-11" value="HSM" style="ellipse;whiteSpace=wrap;html=1;fillColor=#dae8fc;strokeColor=#6c8ebf;gradientColor=#7ea6e0;fontStyle=1" parent="1" vertex="1">
          <mxGeometry x="1030" y="1558.19" width="30" height="26" as="geometry" />
        </mxCell>
        <mxCell id="VvgAosoIfMzqGJNysZm7-12" value="IDA" style="ellipse;whiteSpace=wrap;html=1;fillColor=#dae8fc;strokeColor=#6c8ebf;gradientColor=#7ea6e0;fontStyle=1" parent="1" vertex="1">
          <mxGeometry x="1060" y="1524" width="30" height="26" as="geometry" />
        </mxCell>
        <mxCell id="VvgAosoIfMzqGJNysZm7-13" value="KM" style="ellipse;whiteSpace=wrap;html=1;fillColor=#dae8fc;strokeColor=#6c8ebf;gradientColor=#7ea6e0;fontStyle=1" parent="1" vertex="1">
          <mxGeometry x="1030" y="1610.56" width="30" height="26" as="geometry" />
        </mxCell>
        <mxCell id="VvgAosoIfMzqGJNysZm7-131" value="LM.4" style="text;html=1;align=center;verticalAlign=middle;resizable=0;points=[];autosize=1;strokeColor=none;fillColor=none;fontStyle=1;strokeWidth=2;fontSize=29;" parent="1" vertex="1">
          <mxGeometry x="910" y="330.37" width="90" height="50" as="geometry" />
        </mxCell>
        <mxCell id="IBh8XvmBuXQmxbNOhlYL-7" value="&lt;b style=&quot;font-size: 11px;&quot;&gt;START&lt;br&gt;&lt;/b&gt;" style="strokeWidth=2;html=1;shape=mxgraph.flowchart.terminator;whiteSpace=wrap;fillColor=#d5e8d4;strokeColor=#82b366;fontSize=11;" parent="1" vertex="1">
          <mxGeometry x="360" y="1390" width="100" height="40" as="geometry" />
        </mxCell>
        <mxCell id="IBh8XvmBuXQmxbNOhlYL-15" value="SET EXPIRY 60 SEC" style="edgeStyle=orthogonalEdgeStyle;rounded=0;orthogonalLoop=1;jettySize=auto;html=1;exitX=0.5;exitY=1;exitDx=0;exitDy=0;entryX=0;entryY=0.5;entryDx=0;entryDy=0;entryPerimeter=0;startArrow=classic;startFill=1;strokeColor=#00CC00;strokeWidth=2;fontStyle=1;" parent="1" source="IBh8XvmBuXQmxbNOhlYL-11" target="VvgAosoIfMzqGJNysZm7-10" edge="1">
          <mxGeometry x="-0.7176" relative="1" as="geometry">
            <mxPoint as="offset" />
          </mxGeometry>
        </mxCell>
        <mxCell id="IBh8XvmBuXQmxbNOhlYL-17" style="edgeStyle=orthogonalEdgeStyle;rounded=0;orthogonalLoop=1;jettySize=auto;html=1;exitX=1;exitY=0.5;exitDx=0;exitDy=0;entryX=0;entryY=0.5;entryDx=0;entryDy=0;strokeColor=#FF2617;strokeWidth=2;fontStyle=1;" parent="1" source="IBh8XvmBuXQmxbNOhlYL-11" target="IBh8XvmBuXQmxbNOhlYL-16" edge="1">
          <mxGeometry relative="1" as="geometry" />
        </mxCell>
        <mxCell id="IBh8XvmBuXQmxbNOhlYL-11" value="IF OTP GENERATED&lt;br&gt;&amp;nbsp;&lt;u&gt;B.2.4.1.A&lt;/u&gt;" style="rounded=0;whiteSpace=wrap;html=1;fontStyle=1;strokeWidth=2;fontSize=11;fillColor=default;strokeColor=default;shape=rhombus;perimeter=rhombusPerimeter;" parent="1" vertex="1">
          <mxGeometry x="730" y="1369.99" width="100" height="80.01" as="geometry" />
        </mxCell>
        <mxCell id="IBh8XvmBuXQmxbNOhlYL-13" style="edgeStyle=orthogonalEdgeStyle;rounded=0;orthogonalLoop=1;jettySize=auto;html=1;exitX=1;exitY=0.5;exitDx=0;exitDy=0;entryX=0;entryY=0.5;entryDx=0;entryDy=0;strokeColor=#FF2617;strokeWidth=2;fontStyle=1;" parent="1" source="IBh8XvmBuXQmxbNOhlYL-12" target="IBh8XvmBuXQmxbNOhlYL-11" edge="1">
          <mxGeometry relative="1" as="geometry" />
        </mxCell>
        <mxCell id="IBh8XvmBuXQmxbNOhlYL-14" value="SET EXPIRY 90 DAYS" style="edgeStyle=orthogonalEdgeStyle;rounded=0;orthogonalLoop=1;jettySize=auto;html=1;exitX=0.5;exitY=1;exitDx=0;exitDy=0;entryX=0;entryY=0.5;entryDx=0;entryDy=0;entryPerimeter=0;startArrow=classic;startFill=1;strokeColor=#00CC00;strokeWidth=2;fontStyle=1;" parent="1" source="IBh8XvmBuXQmxbNOhlYL-12" target="VvgAosoIfMzqGJNysZm7-10" edge="1">
          <mxGeometry x="-0.8017" relative="1" as="geometry">
            <mxPoint as="offset" />
          </mxGeometry>
        </mxCell>
        <mxCell id="IBh8XvmBuXQmxbNOhlYL-51" style="edgeStyle=orthogonalEdgeStyle;rounded=0;orthogonalLoop=1;jettySize=auto;html=1;exitX=1;exitY=0.5;exitDx=0;exitDy=0;entryX=0.5;entryY=1;entryDx=0;entryDy=0;strokeColor=#00CC00;strokeWidth=2;fontStyle=1;" parent="1" source="IBh8XvmBuXQmxbNOhlYL-12" target="IBh8XvmBuXQmxbNOhlYL-23" edge="1">
          <mxGeometry relative="1" as="geometry">
            <Array as="points">
              <mxPoint x="650" y="795" />
            </Array>
          </mxGeometry>
        </mxCell>
        <mxCell id="IBh8XvmBuXQmxbNOhlYL-12" value="IF TOKEN GENERATED &lt;u&gt;B.2.4.3.D&lt;/u&gt;" style="rounded=0;whiteSpace=wrap;html=1;fontStyle=1;strokeWidth=2;fontSize=11;fillColor=default;strokeColor=default;shape=rhombus;perimeter=rhombusPerimeter;" parent="1" vertex="1">
          <mxGeometry x="550" y="1369.99" width="100" height="80.01" as="geometry" />
        </mxCell>
        <mxCell id="IBh8XvmBuXQmxbNOhlYL-21" value="SET EXPIRY 30 DAYS" style="edgeStyle=orthogonalEdgeStyle;rounded=0;orthogonalLoop=1;jettySize=auto;html=1;exitX=0.5;exitY=1;exitDx=0;exitDy=0;entryX=0;entryY=0.5;entryDx=0;entryDy=0;entryPerimeter=0;startArrow=classic;startFill=1;strokeColor=#00CC00;strokeWidth=2;fontStyle=1;" parent="1" source="IBh8XvmBuXQmxbNOhlYL-16" target="VvgAosoIfMzqGJNysZm7-10" edge="1">
          <mxGeometry x="-0.5714" relative="1" as="geometry">
            <mxPoint as="offset" />
          </mxGeometry>
        </mxCell>
        <mxCell id="IBh8XvmBuXQmxbNOhlYL-22" value="DEACTIVATE&lt;br&gt;AUTHENTICATOR" style="edgeStyle=orthogonalEdgeStyle;rounded=0;orthogonalLoop=1;jettySize=auto;html=1;exitX=1;exitY=0.5;exitDx=0;exitDy=0;entryX=0.25;entryY=0;entryDx=0;entryDy=0;strokeColor=#FF2617;strokeWidth=2;fontStyle=1;" parent="1" source="IBh8XvmBuXQmxbNOhlYL-16" target="VvgAosoIfMzqGJNysZm7-10" edge="1">
          <mxGeometry x="-0.2152" y="2" relative="1" as="geometry">
            <mxPoint as="offset" />
          </mxGeometry>
        </mxCell>
        <mxCell id="IBh8XvmBuXQmxbNOhlYL-16" value="IF FTP DELIVERED&lt;br&gt;&amp;nbsp;&lt;u&gt;A.4.4.3.C&lt;/u&gt;" style="rounded=0;whiteSpace=wrap;html=1;fontStyle=1;strokeWidth=2;fontSize=11;fillColor=default;strokeColor=default;shape=rhombus;perimeter=rhombusPerimeter;" parent="1" vertex="1">
          <mxGeometry x="875" y="1369.99" width="100" height="80.01" as="geometry" />
        </mxCell>
        <mxCell id="IBh8XvmBuXQmxbNOhlYL-34" style="edgeStyle=orthogonalEdgeStyle;rounded=0;orthogonalLoop=1;jettySize=auto;html=1;exitX=1;exitY=0.5;exitDx=0;exitDy=0;strokeColor=#00CC00;strokeWidth=2;fontStyle=1;" parent="1" source="IBh8XvmBuXQmxbNOhlYL-23" target="IBh8XvmBuXQmxbNOhlYL-33" edge="1">
          <mxGeometry relative="1" as="geometry" />
        </mxCell>
        <mxCell id="IBh8XvmBuXQmxbNOhlYL-23" value="TOKEN&amp;nbsp;AUTH.&lt;br&gt;&amp;nbsp;&lt;u&gt;AU.2.E&lt;/u&gt;" style="rounded=0;whiteSpace=wrap;html=1;fontStyle=1;strokeWidth=2;fontSize=11;fillColor=default;strokeColor=default;shape=label;" parent="1" vertex="1">
          <mxGeometry x="610" y="745" width="80" height="50" as="geometry" />
        </mxCell>
        <mxCell id="IBh8XvmBuXQmxbNOhlYL-35" style="edgeStyle=orthogonalEdgeStyle;rounded=0;orthogonalLoop=1;jettySize=auto;html=1;exitX=0.5;exitY=0;exitDx=0;exitDy=0;entryX=0.5;entryY=0;entryDx=0;entryDy=0;strokeColor=#00CC00;strokeWidth=2;fontStyle=1;" parent="1" source="IBh8XvmBuXQmxbNOhlYL-24" target="IBh8XvmBuXQmxbNOhlYL-33" edge="1">
          <mxGeometry relative="1" as="geometry">
            <Array as="points">
              <mxPoint x="780" y="560" />
              <mxPoint x="1310" y="560" />
            </Array>
          </mxGeometry>
        </mxCell>
        <mxCell id="IBh8XvmBuXQmxbNOhlYL-24" value="OTP &lt;br&gt;AUTH.&lt;br&gt;&amp;nbsp;&lt;u&gt;AU.2.C&lt;/u&gt;" style="rounded=0;whiteSpace=wrap;html=1;fontStyle=1;strokeWidth=2;fontSize=11;fillColor=default;strokeColor=default;shape=label;" parent="1" vertex="1">
          <mxGeometry x="730" y="590.01" width="100" height="49.99" as="geometry" />
        </mxCell>
        <mxCell id="IBh8XvmBuXQmxbNOhlYL-36" style="edgeStyle=orthogonalEdgeStyle;rounded=0;orthogonalLoop=1;jettySize=auto;html=1;exitX=1;exitY=0.5;exitDx=0;exitDy=0;entryX=0.5;entryY=0;entryDx=0;entryDy=0;strokeColor=#00CC00;strokeWidth=2;fontStyle=1;" parent="1" source="IBh8XvmBuXQmxbNOhlYL-25" target="IBh8XvmBuXQmxbNOhlYL-33" edge="1">
          <mxGeometry relative="1" as="geometry">
            <Array as="points">
              <mxPoint x="1310" y="615" />
            </Array>
          </mxGeometry>
        </mxCell>
        <mxCell id="IBh8XvmBuXQmxbNOhlYL-25" value="FTP &lt;br&gt;AUTH.&lt;br&gt;&amp;nbsp;&lt;u&gt;AU.1.B&lt;/u&gt;" style="rounded=0;whiteSpace=wrap;html=1;fontStyle=1;strokeWidth=2;fontSize=11;fillColor=default;strokeColor=default;shape=label;" parent="1" vertex="1">
          <mxGeometry x="875" y="590.01" width="100" height="50" as="geometry" />
        </mxCell>
        <mxCell id="IBh8XvmBuXQmxbNOhlYL-37" value="CHECK EXPIRY" style="edgeStyle=orthogonalEdgeStyle;rounded=0;orthogonalLoop=1;jettySize=auto;html=1;exitX=0;exitY=0.5;exitDx=0;exitDy=0;entryX=0.5;entryY=0;entryDx=0;entryDy=0;startArrow=classic;startFill=1;strokeColor=#00CC00;strokeWidth=2;fontStyle=1;" parent="1" source="IBh8XvmBuXQmxbNOhlYL-33" target="VvgAosoIfMzqGJNysZm7-10" edge="1">
          <mxGeometry x="-0.2516" relative="1" as="geometry">
            <mxPoint as="offset" />
          </mxGeometry>
        </mxCell>
        <mxCell id="IBh8XvmBuXQmxbNOhlYL-38" value="DEACTIVATE&lt;br&gt;AUTH." style="edgeStyle=orthogonalEdgeStyle;rounded=0;orthogonalLoop=1;jettySize=auto;html=1;exitX=0;exitY=0.5;exitDx=0;exitDy=0;entryX=1;entryY=0;entryDx=0;entryDy=30;entryPerimeter=0;startArrow=classic;startFill=1;strokeColor=#00CC00;strokeWidth=2;fontStyle=1;" parent="1" source="IBh8XvmBuXQmxbNOhlYL-33" target="VvgAosoIfMzqGJNysZm7-10" edge="1">
          <mxGeometry relative="1" as="geometry">
            <Array as="points">
              <mxPoint x="1230" y="1445" />
              <mxPoint x="1230" y="1580" />
            </Array>
          </mxGeometry>
        </mxCell>
        <mxCell id="IBh8XvmBuXQmxbNOhlYL-43" style="edgeStyle=orthogonalEdgeStyle;rounded=0;orthogonalLoop=1;jettySize=auto;html=1;exitX=1;exitY=0.5;exitDx=0;exitDy=0;entryX=0.5;entryY=1;entryDx=0;entryDy=0;strokeColor=#00CC00;strokeWidth=2;fontStyle=1;" parent="1" source="IBh8XvmBuXQmxbNOhlYL-33" target="IBh8XvmBuXQmxbNOhlYL-42" edge="1">
          <mxGeometry relative="1" as="geometry" />
        </mxCell>
        <mxCell id="IBh8XvmBuXQmxbNOhlYL-59" value="AUTHENTICATE AND&lt;br&gt;RESET RETRY&lt;br&gt;COUNTER" style="edgeStyle=orthogonalEdgeStyle;rounded=0;orthogonalLoop=1;jettySize=auto;html=1;exitX=0.5;exitY=1;exitDx=0;exitDy=0;entryX=1;entryY=0;entryDx=0;entryDy=60;entryPerimeter=0;startArrow=classic;startFill=1;strokeColor=#FF2617;strokeWidth=2;fontStyle=1;" parent="1" source="IBh8XvmBuXQmxbNOhlYL-33" target="VvgAosoIfMzqGJNysZm7-10" edge="1">
          <mxGeometry relative="1" as="geometry" />
        </mxCell>
        <mxCell id="IBh8XvmBuXQmxbNOhlYL-33" value="IF&lt;br&gt;&amp;nbsp;AUTHENTICATOR &lt;br&gt;EXPIRED" style="rounded=0;whiteSpace=wrap;html=1;fontStyle=1;strokeWidth=2;fontSize=11;fillColor=default;strokeColor=default;shape=rhombus;perimeter=rhombusPerimeter;" parent="1" vertex="1">
          <mxGeometry x="1245" y="1400" width="130" height="90" as="geometry" />
        </mxCell>
        <mxCell id="IBh8XvmBuXQmxbNOhlYL-57" style="edgeStyle=orthogonalEdgeStyle;rounded=0;orthogonalLoop=1;jettySize=auto;html=1;exitX=0.5;exitY=0;exitDx=0;exitDy=0;strokeColor=#00CC00;strokeWidth=2;fontStyle=1;" parent="1" source="IBh8XvmBuXQmxbNOhlYL-39" target="Joddp9kIxZkXrCVyOgkU-51" edge="1">
          <mxGeometry relative="1" as="geometry" />
        </mxCell>
        <mxCell id="IBh8XvmBuXQmxbNOhlYL-39" value="RECEIVE AUTHENTICATION SUCCESS NOTIFICATION" style="rounded=0;whiteSpace=wrap;html=1;fontStyle=1;strokeWidth=2;fontSize=11;fillColor=default;strokeColor=default;shape=label;" parent="1" vertex="1">
          <mxGeometry x="1680" y="570" width="100" height="80.01" as="geometry" />
        </mxCell>
        <mxCell id="IBh8XvmBuXQmxbNOhlYL-56" style="edgeStyle=orthogonalEdgeStyle;rounded=0;orthogonalLoop=1;jettySize=auto;html=1;exitX=0.5;exitY=0;exitDx=0;exitDy=0;entryX=0.5;entryY=1;entryDx=0;entryDy=0;strokeColor=#FF2617;strokeWidth=2;fontStyle=1;" parent="1" source="IBh8XvmBuXQmxbNOhlYL-40" target="IBh8XvmBuXQmxbNOhlYL-39" edge="1">
          <mxGeometry relative="1" as="geometry" />
        </mxCell>
        <mxCell id="IBh8XvmBuXQmxbNOhlYL-40" value="RECEIVE AUTHENTICATION SUCCESS NOTIFICATION" style="rounded=0;whiteSpace=wrap;html=1;fontStyle=1;strokeWidth=2;fontSize=11;fillColor=default;strokeColor=default;shape=label;" parent="1" vertex="1">
          <mxGeometry x="1680" y="780" width="100" height="80.01" as="geometry" />
        </mxCell>
        <mxCell id="IBh8XvmBuXQmxbNOhlYL-47" style="edgeStyle=orthogonalEdgeStyle;rounded=0;orthogonalLoop=1;jettySize=auto;html=1;exitX=0.5;exitY=0;exitDx=0;exitDy=0;entryX=0.5;entryY=1;entryDx=0;entryDy=0;strokeColor=#00CC00;strokeWidth=2;fontStyle=1;" parent="1" source="IBh8XvmBuXQmxbNOhlYL-41" target="IBh8XvmBuXQmxbNOhlYL-45" edge="1">
          <mxGeometry relative="1" as="geometry" />
        </mxCell>
        <mxCell id="IBh8XvmBuXQmxbNOhlYL-41" value="RECEIVE AUTHENTICATOR EXPIRED NOTIFICATION" style="rounded=0;whiteSpace=wrap;html=1;fontStyle=1;strokeWidth=2;fontSize=11;fillColor=default;strokeColor=default;shape=label;" parent="1" vertex="1">
          <mxGeometry x="1390" y="560" width="100" height="80.01" as="geometry" />
        </mxCell>
        <mxCell id="IBh8XvmBuXQmxbNOhlYL-44" style="edgeStyle=orthogonalEdgeStyle;rounded=0;orthogonalLoop=1;jettySize=auto;html=1;exitX=0.5;exitY=0;exitDx=0;exitDy=0;entryX=0.5;entryY=1;entryDx=0;entryDy=0;strokeColor=#00CC00;strokeWidth=2;fontStyle=1;" parent="1" source="IBh8XvmBuXQmxbNOhlYL-42" target="IBh8XvmBuXQmxbNOhlYL-41" edge="1">
          <mxGeometry relative="1" as="geometry" />
        </mxCell>
        <mxCell id="IBh8XvmBuXQmxbNOhlYL-48" style="edgeStyle=orthogonalEdgeStyle;rounded=0;orthogonalLoop=1;jettySize=auto;html=1;exitX=1;exitY=0.5;exitDx=0;exitDy=0;strokeColor=#00CC00;strokeWidth=2;fontStyle=1;" parent="1" source="IBh8XvmBuXQmxbNOhlYL-42" target="IBh8XvmBuXQmxbNOhlYL-46" edge="1">
          <mxGeometry relative="1" as="geometry" />
        </mxCell>
        <mxCell id="IBh8XvmBuXQmxbNOhlYL-42" value="RECEIVE AUTHENTICATOR EXPIRED NOTIFICATION" style="rounded=0;whiteSpace=wrap;html=1;fontStyle=1;strokeWidth=2;fontSize=11;fillColor=default;strokeColor=default;shape=label;" parent="1" vertex="1">
          <mxGeometry x="1390" y="780" width="100" height="80.01" as="geometry" />
        </mxCell>
        <mxCell id="IBh8XvmBuXQmxbNOhlYL-50" style="edgeStyle=orthogonalEdgeStyle;rounded=0;orthogonalLoop=1;jettySize=auto;html=1;exitX=0.5;exitY=0;exitDx=0;exitDy=0;strokeColor=#00CC00;strokeWidth=2;fontStyle=1;" parent="1" source="IBh8XvmBuXQmxbNOhlYL-45" target="IBh8XvmBuXQmxbNOhlYL-12" edge="1">
          <mxGeometry relative="1" as="geometry">
            <Array as="points">
              <mxPoint x="1440" y="410" />
              <mxPoint x="600" y="410" />
            </Array>
          </mxGeometry>
        </mxCell>
        <mxCell id="IBh8XvmBuXQmxbNOhlYL-45" value="GENERATE NEW AUTHENTICATOR:&lt;br&gt;TOKEN:&amp;nbsp;&lt;u style=&quot;border-color: var(--border-color);&quot;&gt;AU.2.D&lt;/u&gt;&lt;br&gt;OTP:&amp;nbsp;&lt;u style=&quot;border-color: var(--border-color);&quot;&gt;AU.2.A&lt;/u&gt;" style="rounded=0;whiteSpace=wrap;html=1;fontStyle=1;strokeWidth=2;fontSize=11;fillColor=default;strokeColor=default;shape=label;" parent="1" vertex="1">
          <mxGeometry x="1380" y="435" width="120" height="90" as="geometry" />
        </mxCell>
        <mxCell id="IBh8XvmBuXQmxbNOhlYL-49" style="edgeStyle=orthogonalEdgeStyle;rounded=0;orthogonalLoop=1;jettySize=auto;html=1;exitX=0.5;exitY=0;exitDx=0;exitDy=0;entryX=0.5;entryY=0;entryDx=0;entryDy=0;strokeColor=#00CC00;strokeWidth=2;fontStyle=1;" parent="1" source="IBh8XvmBuXQmxbNOhlYL-46" target="IBh8XvmBuXQmxbNOhlYL-12" edge="1">
          <mxGeometry relative="1" as="geometry">
            <Array as="points">
              <mxPoint x="1590" y="410" />
              <mxPoint x="600" y="410" />
            </Array>
          </mxGeometry>
        </mxCell>
        <mxCell id="IBh8XvmBuXQmxbNOhlYL-46" value="GENERATE NEW AUTHENTICATOR AND DELIVER:&lt;br&gt;FTP:&amp;nbsp;&lt;u style=&quot;border-color: var(--border-color);&quot;&gt;OB.4.C&lt;/u&gt;" style="rounded=0;whiteSpace=wrap;html=1;fontStyle=1;strokeWidth=2;fontSize=11;fillColor=default;strokeColor=default;shape=label;" parent="1" vertex="1">
          <mxGeometry x="1530" y="787.51" width="120" height="65" as="geometry" />
        </mxCell>
        <mxCell id="Joddp9kIxZkXrCVyOgkU-47" value="NOTIFICATION GENERATOR" style="rounded=0;whiteSpace=wrap;html=1;fontStyle=1;strokeWidth=2;fontSize=11;fillColor=default;strokeColor=default;" parent="1" vertex="1">
          <mxGeometry x="1380" y="1339.99" width="400" height="30" as="geometry" />
        </mxCell>
        <mxCell id="uxtkgf0Wfo-vl2xIxNzD-4" style="edgeStyle=orthogonalEdgeStyle;rounded=0;orthogonalLoop=1;jettySize=auto;html=1;exitX=0.75;exitY=1;exitDx=0;exitDy=0;entryX=0;entryY=0.5;entryDx=0;entryDy=0;entryPerimeter=0;strokeColor=#00CC00;startArrow=none;startFill=0;strokeWidth=2;fontStyle=1;" parent="1" source="VvgAosoIfMzqGJNysZm7-110" target="uxtkgf0Wfo-vl2xIxNzD-1" edge="1">
          <mxGeometry relative="1" as="geometry">
            <mxPoint x="1520" y="1670" as="targetPoint" />
            <Array as="points">
              <mxPoint x="1480" y="1668" />
              <mxPoint x="1520" y="1668" />
            </Array>
          </mxGeometry>
        </mxCell>
        <mxCell id="VvgAosoIfMzqGJNysZm7-110" value="ERROR AND EXCEPTION HANDLING" style="rounded=0;whiteSpace=wrap;html=1;fontStyle=1;strokeWidth=2;fontSize=11;fillColor=default;strokeColor=default;" parent="1" vertex="1">
          <mxGeometry x="1375" y="1379.19" width="140" height="42.19" as="geometry" />
        </mxCell>
        <mxCell id="IBh8XvmBuXQmxbNOhlYL-58" value="ERROR AND EXCEPTION HANDLING" style="rounded=0;whiteSpace=wrap;html=1;fontStyle=1;strokeWidth=2;fontSize=11;fillColor=default;strokeColor=default;" parent="1" vertex="1">
          <mxGeometry x="500" y="1297.8" width="140" height="42.19" as="geometry" />
        </mxCell>
        <mxCell id="IBh8XvmBuXQmxbNOhlYL-60" value="AC" style="ellipse;whiteSpace=wrap;html=1;fillColor=#dae8fc;strokeColor=#6c8ebf;gradientColor=#7ea6e0;fontStyle=1" parent="1" vertex="1">
          <mxGeometry x="1250" y="1400" width="30" height="26" as="geometry" />
        </mxCell>
        <mxCell id="IBh8XvmBuXQmxbNOhlYL-61" value="KM" style="ellipse;whiteSpace=wrap;html=1;fillColor=#dae8fc;strokeColor=#6c8ebf;gradientColor=#7ea6e0;fontStyle=1" parent="1" vertex="1">
          <mxGeometry x="1250" y="1463.19" width="30" height="26" as="geometry" />
        </mxCell>
        <mxCell id="IBh8XvmBuXQmxbNOhlYL-66" value="" style="group" parent="1" vertex="1" connectable="0">
          <mxGeometry x="490" y="1080" width="140.00000000000003" height="78" as="geometry" />
        </mxCell>
        <mxCell id="IBh8XvmBuXQmxbNOhlYL-62" value="MASK &amp;amp; ENCRYPT&amp;nbsp; AUTHENTICATOR DETAILS" style="rounded=0;whiteSpace=wrap;html=1;fontStyle=1;strokeWidth=2;fontSize=11;container=0;" parent="IBh8XvmBuXQmxbNOhlYL-66" vertex="1">
          <mxGeometry x="28.970000000000027" y="4.130000000000109" width="111.03" height="69.75" as="geometry" />
        </mxCell>
        <mxCell id="IBh8XvmBuXQmxbNOhlYL-63" value="KM" style="ellipse;whiteSpace=wrap;html=1;fillColor=#dae8fc;strokeColor=#6c8ebf;gradientColor=#7ea6e0;fontStyle=1" parent="IBh8XvmBuXQmxbNOhlYL-66" vertex="1">
          <mxGeometry width="28.965517241379303" height="26" as="geometry" />
        </mxCell>
        <mxCell id="IBh8XvmBuXQmxbNOhlYL-64" value="HSM" style="ellipse;whiteSpace=wrap;html=1;fillColor=#dae8fc;strokeColor=#6c8ebf;gradientColor=#7ea6e0;fontStyle=1" parent="IBh8XvmBuXQmxbNOhlYL-66" vertex="1">
          <mxGeometry y="26" width="28.965517241379303" height="26" as="geometry" />
        </mxCell>
        <mxCell id="IBh8XvmBuXQmxbNOhlYL-65" value="CA" style="ellipse;whiteSpace=wrap;html=1;fillColor=#dae8fc;strokeColor=#6c8ebf;gradientColor=#7ea6e0;fontStyle=1" parent="IBh8XvmBuXQmxbNOhlYL-66" vertex="1">
          <mxGeometry y="52" width="28.965517241379303" height="26" as="geometry" />
        </mxCell>
        <mxCell id="t8oGIxHCCfBVZsMOv7Ev-176" value="" style="group" parent="1" vertex="1" connectable="0">
          <mxGeometry x="241.23024054982818" y="943" width="1788.769759450172" height="94.38" as="geometry" />
        </mxCell>
        <mxCell id="t8oGIxHCCfBVZsMOv7Ev-180" value="API/ HTTPS (SSL/TLS)" style="shape=label;whiteSpace=wrap;html=1;boundedLbl=1;backgroundOutline=1;darkOpacity=0.05;darkOpacity2=0.1;fillColor=#f8cecc;strokeColor=#b85450;rounded=0;fontStyle=1" parent="t8oGIxHCCfBVZsMOv7Ev-176" vertex="1">
          <mxGeometry width="1788.769759450172" height="19.999999999999975" as="geometry" />
        </mxCell>
        <mxCell id="t8oGIxHCCfBVZsMOv7Ev-177" value="" style="group" parent="t8oGIxHCCfBVZsMOv7Ev-176" vertex="1" connectable="0">
          <mxGeometry y="19.999999999999975" width="1788.769759450172" height="74.38000000000002" as="geometry" />
        </mxCell>
        <mxCell id="t8oGIxHCCfBVZsMOv7Ev-178" value="IDS, IPS, HONEYPOT" style="shape=label;whiteSpace=wrap;html=1;boundedLbl=1;backgroundOutline=1;darkOpacity=0.05;darkOpacity2=0.1;fillColor=#f0a30a;strokeColor=#BD7000;rounded=0;fontColor=#000000;fontSize=12;fontStyle=1" parent="t8oGIxHCCfBVZsMOv7Ev-177" vertex="1">
          <mxGeometry y="19.99999999999998" width="1788.7697594501713" height="19.99999999999998" as="geometry" />
        </mxCell>
        <mxCell id="t8oGIxHCCfBVZsMOv7Ev-179" value="SINGLE/ DUAL FIREWALL" style="shape=label;whiteSpace=wrap;html=1;boundedLbl=1;backgroundOutline=1;darkOpacity=0.05;darkOpacity2=0.1;fillColor=#e51400;fontColor=#ffffff;strokeColor=#B20000;rounded=0;fontStyle=1" parent="t8oGIxHCCfBVZsMOv7Ev-177" vertex="1">
          <mxGeometry width="1788.7697594501713" height="19.99999999999998" as="geometry" />
        </mxCell>
        <mxCell id="t8oGIxHCCfBVZsMOv7Ev-181" value="" style="group" parent="1" vertex="1" connectable="0">
          <mxGeometry x="241.84536082474227" y="1232.19" width="1788.1546391752577" height="60" as="geometry" />
        </mxCell>
        <mxCell id="t8oGIxHCCfBVZsMOv7Ev-182" value="" style="group" parent="t8oGIxHCCfBVZsMOv7Ev-181" vertex="1" connectable="0">
          <mxGeometry y="20" width="1788.1546391752577" height="40" as="geometry" />
        </mxCell>
        <mxCell id="t8oGIxHCCfBVZsMOv7Ev-183" value="SINGLE / DUAL FIREWALL" style="shape=label;whiteSpace=wrap;html=1;boundedLbl=1;backgroundOutline=1;darkOpacity=0.05;darkOpacity2=0.1;fillColor=#e51400;fontColor=#ffffff;strokeColor=#B20000;rounded=0;fontStyle=1" parent="t8oGIxHCCfBVZsMOv7Ev-182" vertex="1">
          <mxGeometry width="1788.1546391752577" height="20" as="geometry" />
        </mxCell>
        <mxCell id="t8oGIxHCCfBVZsMOv7Ev-184" value="IDS, IPS, HONEYPOT" style="shape=label;whiteSpace=wrap;html=1;boundedLbl=1;backgroundOutline=1;darkOpacity=0.05;darkOpacity2=0.1;fillColor=#f0a30a;strokeColor=#BD7000;rounded=0;fontColor=#000000;fontSize=12;fontStyle=1" parent="t8oGIxHCCfBVZsMOv7Ev-182" vertex="1">
          <mxGeometry y="20" width="1788.1546391752577" height="20" as="geometry" />
        </mxCell>
        <mxCell id="t8oGIxHCCfBVZsMOv7Ev-185" value="API/ HTTPS (SSL/TLS)" style="shape=label;whiteSpace=wrap;html=1;boundedLbl=1;backgroundOutline=1;darkOpacity=0.05;darkOpacity2=0.1;fillColor=#f8cecc;strokeColor=#b85450;rounded=0;fontStyle=1" parent="t8oGIxHCCfBVZsMOv7Ev-181" vertex="1">
          <mxGeometry width="1788.1546391752577" height="20" as="geometry" />
        </mxCell>
        <mxCell id="VvgAosoIfMzqGJNysZm7-6" value="" style="group" parent="1" vertex="1" connectable="0">
          <mxGeometry x="240" y="685" width="1790" height="40" as="geometry" />
        </mxCell>
        <mxCell id="VvgAosoIfMzqGJNysZm7-5" value="API/ HTTPS (SSL/TLS)" style="shape=label;whiteSpace=wrap;html=1;boundedLbl=1;backgroundOutline=1;darkOpacity=0.05;darkOpacity2=0.1;fillColor=#f8cecc;strokeColor=#b85450;rounded=0;fontStyle=1" parent="VvgAosoIfMzqGJNysZm7-6" vertex="1">
          <mxGeometry width="1790" height="20" as="geometry" />
        </mxCell>
        <mxCell id="VvgAosoIfMzqGJNysZm7-4" value="SINGLE&amp;nbsp; FIREWALL" style="shape=label;whiteSpace=wrap;html=1;boundedLbl=1;backgroundOutline=1;darkOpacity=0.05;darkOpacity2=0.1;fillColor=#e51400;fontColor=#ffffff;strokeColor=#B20000;rounded=0;fontStyle=1" parent="VvgAosoIfMzqGJNysZm7-6" vertex="1">
          <mxGeometry y="20" width="1789.9999999999986" height="20" as="geometry" />
        </mxCell>
        <mxCell id="uxtkgf0Wfo-vl2xIxNzD-1" value="&lt;span style=&quot;border-color: var(--border-color);&quot;&gt;&lt;b&gt;TERMINATE PROCESS:&lt;/b&gt;&lt;br&gt;WHEN 3 RETRY EXCEEDED&lt;br&gt;&lt;/span&gt;" style="strokeWidth=2;html=1;shape=mxgraph.flowchart.terminator;whiteSpace=wrap;fillColor=#f8cecc;strokeColor=#b85450;" parent="1" vertex="1">
          <mxGeometry x="1520" y="1643.19" width="180" height="49" as="geometry" />
        </mxCell>
        <mxCell id="uxtkgf0Wfo-vl2xIxNzD-2" value="KR" style="ellipse;whiteSpace=wrap;html=1;fillColor=#dae8fc;strokeColor=#6c8ebf;gradientColor=#7ea6e0;fontStyle=1" parent="1" vertex="1">
          <mxGeometry x="1595.0000000000002" y="1630" width="30" height="26" as="geometry" />
        </mxCell>
        <mxCell id="uxtkgf0Wfo-vl2xIxNzD-5" style="edgeStyle=orthogonalEdgeStyle;rounded=0;orthogonalLoop=1;jettySize=auto;html=1;exitX=1;exitY=0.5;exitDx=0;exitDy=0;exitPerimeter=0;entryX=0;entryY=0.5;entryDx=0;entryDy=0;strokeColor=#00CC00;startArrow=none;startFill=0;strokeWidth=2;fontStyle=1;" parent="1" source="uxtkgf0Wfo-vl2xIxNzD-1" target="Joddp9kIxZkXrCVyOgkU-51" edge="1">
          <mxGeometry relative="1" as="geometry" />
        </mxCell>
        <mxCell id="IBh8XvmBuXQmxbNOhlYL-55" style="edgeStyle=orthogonalEdgeStyle;rounded=0;orthogonalLoop=1;jettySize=auto;html=1;exitX=1;exitY=0.5;exitDx=0;exitDy=0;entryX=0.5;entryY=1;entryDx=0;entryDy=0;strokeColor=#FF2617;strokeWidth=2;fontStyle=1;jumpStyle=arc;jumpSize=11;" parent="1" source="IBh8XvmBuXQmxbNOhlYL-33" target="IBh8XvmBuXQmxbNOhlYL-40" edge="1">
          <mxGeometry relative="1" as="geometry">
            <Array as="points">
              <mxPoint x="1375" y="1480" />
              <mxPoint x="1730" y="1480" />
            </Array>
          </mxGeometry>
        </mxCell>
        <mxCell id="IBh8XvmBuXQmxbNOhlYL-52" style="edgeStyle=orthogonalEdgeStyle;rounded=0;orthogonalLoop=1;jettySize=auto;html=1;exitX=0.5;exitY=0;exitDx=0;exitDy=0;entryX=0.5;entryY=1;entryDx=0;entryDy=0;strokeColor=#00CC00;strokeWidth=2;fontStyle=1;jumpStyle=arc;jumpSize=11;" parent="1" source="IBh8XvmBuXQmxbNOhlYL-11" target="IBh8XvmBuXQmxbNOhlYL-24" edge="1">
          <mxGeometry relative="1" as="geometry">
            <mxPoint x="920" y="820" as="targetPoint" />
          </mxGeometry>
        </mxCell>
        <mxCell id="IBh8XvmBuXQmxbNOhlYL-53" style="edgeStyle=orthogonalEdgeStyle;rounded=0;orthogonalLoop=1;jettySize=auto;html=1;exitX=0.5;exitY=0;exitDx=0;exitDy=0;entryX=0.5;entryY=1;entryDx=0;entryDy=0;strokeColor=#00CC00;strokeWidth=2;fontStyle=1;jumpStyle=arc;jumpSize=11;" parent="1" source="IBh8XvmBuXQmxbNOhlYL-16" target="IBh8XvmBuXQmxbNOhlYL-25" edge="1">
          <mxGeometry relative="1" as="geometry" />
        </mxCell>
        <mxCell id="uxtkgf0Wfo-vl2xIxNzD-3" style="edgeStyle=orthogonalEdgeStyle;rounded=0;orthogonalLoop=1;jettySize=auto;html=1;exitX=0.129;exitY=0.991;exitDx=0;exitDy=0;entryX=0;entryY=0.5;entryDx=0;entryDy=0;entryPerimeter=0;strokeColor=#00CC00;startArrow=none;startFill=0;strokeWidth=2;fontStyle=1;exitPerimeter=0;jumpStyle=none;jumpSize=11;" parent="1" source="IBh8XvmBuXQmxbNOhlYL-58" target="uxtkgf0Wfo-vl2xIxNzD-1" edge="1">
          <mxGeometry relative="1" as="geometry" />
        </mxCell>
        <mxCell id="RazqJEHxfHrzLPwUwxGr-1" value="DEACTIVATE AUTH." style="edgeStyle=orthogonalEdgeStyle;rounded=0;orthogonalLoop=1;jettySize=auto;html=1;exitX=0.11;exitY=0.89;exitDx=0;exitDy=0;entryX=0.5;entryY=1;entryDx=0;entryDy=0;entryPerimeter=0;startArrow=classic;startFill=1;strokeColor=#00CC00;strokeWidth=2;fontStyle=1;exitPerimeter=0;jumpStyle=arc;jumpSize=11;" parent="1" source="uxtkgf0Wfo-vl2xIxNzD-1" target="VvgAosoIfMzqGJNysZm7-10" edge="1">
          <mxGeometry x="0.0067" relative="1" as="geometry">
            <Array as="points">
              <mxPoint x="1130" y="1687" />
            </Array>
            <mxPoint x="1255" y="1455" as="sourcePoint" />
            <mxPoint x="1210" y="1590" as="targetPoint" />
            <mxPoint as="offset" />
          </mxGeometry>
        </mxCell>
        <mxCell id="IBh8XvmBuXQmxbNOhlYL-6" style="edgeStyle=orthogonalEdgeStyle;rounded=0;orthogonalLoop=1;jettySize=auto;html=1;exitX=1;exitY=0.5;exitDx=0;exitDy=0;exitPerimeter=0;entryX=0;entryY=0.5;entryDx=0;entryDy=0;strokeColor=#00CC00;strokeWidth=2;fontStyle=1;jumpStyle=arc;jumpSize=11;" parent="1" source="IBh8XvmBuXQmxbNOhlYL-7" target="IBh8XvmBuXQmxbNOhlYL-12" edge="1">
          <mxGeometry relative="1" as="geometry">
            <mxPoint x="490" y="1410" as="targetPoint" />
          </mxGeometry>
        </mxCell>
        <mxCell id="DSgj0ePgnpiEQJRdzlBf-1" value="&lt;div style=&quot;font-size: 18px;&quot;&gt;&lt;font style=&quot;font-size: 18px;&quot;&gt;&lt;b style=&quot;font-size: 18px;&quot;&gt;Purpose:&lt;/b&gt;&lt;/font&gt;&lt;/div&gt;&lt;div style=&quot;font-size: 18px;&quot;&gt;This SOP s&lt;span style=&quot;background-color: rgb(255, 255, 255); color: rgb(13, 13, 13); font-size: 18px; white-space-collapse: preserve;&quot;&gt;pecifies the process for renewing or expiring OTPs and tokens.&lt;/span&gt;&lt;br style=&quot;font-size: 18px;&quot;&gt;&lt;/div&gt;" style="whiteSpace=wrap;html=1;align=left;rounded=0;strokeWidth=2;verticalAlign=middle;fontFamily=Helvetica;fontSize=18;fontStyle=0;" vertex="1" parent="1">
          <mxGeometry x="220" y="270.37" width="1820" height="60" as="geometry" />
        </mxCell>
      </root>
    </mxGraphModel>
  </diagram>
</mxfile>
